<svg xmlns="http://www.w3.org/2000/svg" width="23" height="22.995" viewBox="0 0 23 22.995">
  <path id="instagram-icon" d="M11.5,7.84a5.9,5.9,0,1,0,5.9,5.9A5.886,5.886,0,0,0,11.5,7.84Zm0,9.728a3.833,3.833,0,1,1,3.833-3.833A3.84,3.84,0,0,1,11.5,17.568ZM19.009,7.6a1.375,1.375,0,1,1-1.375-1.375A1.372,1.372,0,0,1,19.009,7.6Zm3.9,1.4a6.805,6.805,0,0,0-1.857-4.818,6.85,6.85,0,0,0-4.818-1.857c-1.9-.108-7.589-.108-9.487,0A6.84,6.84,0,0,0,1.933,4.171,6.827,6.827,0,0,0,.076,8.989c-.108,1.9-.108,7.589,0,9.487a6.805,6.805,0,0,0,1.857,4.818,6.859,6.859,0,0,0,4.818,1.857c1.9.108,7.589.108,9.487,0a6.805,6.805,0,0,0,4.818-1.857,6.85,6.85,0,0,0,1.857-4.818c.108-1.9.108-7.584,0-9.482ZM20.461,20.513A3.881,3.881,0,0,1,18.275,22.7c-1.514.6-5.105.462-6.778.462s-5.27.133-6.778-.462a3.881,3.881,0,0,1-2.186-2.186c-.6-1.514-.462-5.105-.462-6.778s-.133-5.27.462-6.778A3.88,3.88,0,0,1,4.719,4.771c1.514-.6,5.105-.462,6.778-.462s5.27-.133,6.778.462a3.88,3.88,0,0,1,2.186,2.186c.6,1.514.462,5.105.462,6.778S21.062,19,20.461,20.513Z" transform="translate(0.005 -2.238)" fill="#fff"/>
</svg>
