<svg xmlns="http://www.w3.org/2000/svg" width="23" height="23" viewBox="0 0 23 23">
  <path id="whatsapp-icon" d="M19.555,5.592A11.4,11.4,0,0,0,1.617,19.346L0,25.25l6.043-1.586A11.363,11.363,0,0,0,11.49,25.05h.005A11.507,11.507,0,0,0,23,13.652a11.442,11.442,0,0,0-3.445-8.06ZM11.495,23.13A9.456,9.456,0,0,1,6.669,21.81L6.325,21.6l-3.583.94.955-3.5-.226-.359a9.491,9.491,0,1,1,17.6-5.036,9.579,9.579,0,0,1-9.58,9.477Zm5.2-7.1c-.282-.144-1.684-.832-1.946-.924s-.452-.144-.642.144-.734.924-.9,1.119-.334.216-.616.072a7.752,7.752,0,0,1-3.876-3.388c-.293-.5.293-.467.837-1.556a.528.528,0,0,0-.026-.5c-.072-.144-.642-1.545-.878-2.115C8.409,8.334,8.173,8.411,8,8.4s-.354-.01-.544-.01a1.055,1.055,0,0,0-.76.354,3.2,3.2,0,0,0-1,2.377,5.579,5.579,0,0,0,1.16,2.947,12.726,12.726,0,0,0,4.867,4.3c1.807.78,2.516.847,3.419.714a2.917,2.917,0,0,0,1.92-1.355,2.382,2.382,0,0,0,.164-1.355C17.163,16.245,16.973,16.173,16.69,16.035Z" transform="translate(0 -2.25)" fill="#fef"/>
</svg>
