<svg xmlns="http://www.w3.org/2000/svg" width="216.376" height="204.444" viewBox="0 0 216.376 204.444">
  <g id="Group_48" data-name="Group 48" transform="translate(-345.344 658.441) rotate(-90)">
    <rect id="Rectangle_4" data-name="Rectangle 4" width="182.071" height="182.071" rx="1.471" transform="translate(637.067 528.414) rotate(180)" fill="none" stroke="#ca9b46" stroke-miterlimit="10" stroke-width="2"/>
    <g id="Group_47" data-name="Group 47" transform="translate(474.104 356.478)">
      <g id="Group_41" data-name="Group 41" transform="translate(0 199.541)">
        <path id="Path_77" data-name="Path 77" d="M513.927,411.682a2.851,2.851,0,1,1,2.852,2.849A2.854,2.854,0,0,1,513.927,411.682Z" transform="translate(-335.291 -408.83)" fill="#dbd9db"/>
        <path id="Path_78" data-name="Path 78" d="M500.618,411.682a2.85,2.85,0,1,1,2.852,2.849A2.854,2.854,0,0,1,500.618,411.682Z" transform="translate(-366.641 -408.83)" fill="#dbd9db"/>
        <path id="Path_79" data-name="Path 79" d="M487.309,411.682a2.851,2.851,0,1,1,2.852,2.849A2.852,2.852,0,0,1,487.309,411.682Z" transform="translate(-397.991 -408.83)" fill="#dbd9db"/>
        <path id="Path_80" data-name="Path 80" d="M474,411.682a2.851,2.851,0,1,1,2.849,2.849A2.851,2.851,0,0,1,474,411.682Z" transform="translate(-429.341 -408.83)" fill="#dbd9db"/>
        <path id="Path_81" data-name="Path 81" d="M460.691,411.682a2.85,2.85,0,1,1,2.849,2.849A2.851,2.851,0,0,1,460.691,411.682Z" transform="translate(-460.691 -408.83)" fill="#dbd9db"/>
      </g>
      <g id="Group_42" data-name="Group 42" transform="translate(0 159.633)">
        <path id="Path_82" data-name="Path 82" d="M513.927,399.789a2.851,2.851,0,1,1,2.852,2.849A2.852,2.852,0,0,1,513.927,399.789Z" transform="translate(-335.291 -396.937)" fill="#dbd9db"/>
        <path id="Path_83" data-name="Path 83" d="M500.618,399.789a2.85,2.85,0,1,1,2.852,2.849A2.852,2.852,0,0,1,500.618,399.789Z" transform="translate(-366.641 -396.937)" fill="#dbd9db"/>
        <path id="Path_84" data-name="Path 84" d="M487.309,399.789a2.851,2.851,0,1,1,2.852,2.849A2.85,2.85,0,0,1,487.309,399.789Z" transform="translate(-397.991 -396.937)" fill="#dbd9db"/>
        <path id="Path_85" data-name="Path 85" d="M474,399.789a2.851,2.851,0,1,1,2.849,2.849A2.849,2.849,0,0,1,474,399.789Z" transform="translate(-429.341 -396.937)" fill="#dbd9db"/>
        <path id="Path_86" data-name="Path 86" d="M460.691,399.789a2.85,2.85,0,1,1,2.849,2.849A2.849,2.849,0,0,1,460.691,399.789Z" transform="translate(-460.691 -396.937)" fill="#dbd9db"/>
      </g>
      <g id="Group_43" data-name="Group 43" transform="translate(0 119.725)">
        <path id="Path_87" data-name="Path 87" d="M513.927,387.893a2.851,2.851,0,1,1,2.852,2.852A2.851,2.851,0,0,1,513.927,387.893Z" transform="translate(-335.291 -385.043)" fill="#dbd9db"/>
        <circle id="Ellipse_54" data-name="Ellipse 54" cx="2.851" cy="2.851" r="2.851" transform="translate(133.978)" fill="#dbd9db"/>
        <circle id="Ellipse_55" data-name="Ellipse 55" cx="2.851" cy="2.851" r="2.851" transform="translate(89.318)" fill="#dbd9db"/>
        <path id="Path_88" data-name="Path 88" d="M474,387.893a2.851,2.851,0,1,1,2.849,2.852A2.848,2.848,0,0,1,474,387.893Z" transform="translate(-429.341 -385.043)" fill="#dbd9db"/>
        <path id="Path_89" data-name="Path 89" d="M460.691,387.893a2.85,2.85,0,1,1,2.849,2.852A2.848,2.848,0,0,1,460.691,387.893Z" transform="translate(-460.691 -385.043)" fill="#dbd9db"/>
      </g>
      <g id="Group_44" data-name="Group 44" transform="translate(0 79.815)">
        <path id="Path_90" data-name="Path 90" d="M513.927,376a2.851,2.851,0,1,1,2.852,2.852A2.854,2.854,0,0,1,513.927,376Z" transform="translate(-335.291 -373.15)" fill="#dbd9db"/>
        <circle id="Ellipse_56" data-name="Ellipse 56" cx="2.851" cy="2.851" r="2.851" transform="translate(133.978 0.002)" fill="#dbd9db"/>
        <circle id="Ellipse_57" data-name="Ellipse 57" cx="2.851" cy="2.851" r="2.851" transform="translate(89.318 0.002)" fill="#dbd9db"/>
        <path id="Path_91" data-name="Path 91" d="M474,376a2.851,2.851,0,1,1,2.849,2.852A2.851,2.851,0,0,1,474,376Z" transform="translate(-429.341 -373.15)" fill="#dbd9db"/>
        <path id="Path_92" data-name="Path 92" d="M460.691,376a2.85,2.85,0,1,1,2.849,2.852A2.851,2.851,0,0,1,460.691,376Z" transform="translate(-460.691 -373.15)" fill="#dbd9db"/>
      </g>
      <g id="Group_45" data-name="Group 45" transform="translate(0 39.907)">
        <path id="Path_93" data-name="Path 93" d="M513.927,364.109a2.851,2.851,0,1,1,2.852,2.849A2.854,2.854,0,0,1,513.927,364.109Z" transform="translate(-335.291 -361.257)" fill="#dbd9db"/>
        <circle id="Ellipse_58" data-name="Ellipse 58" cx="2.851" cy="2.851" r="2.851" transform="translate(133.978 0.001)" fill="#dbd9db"/>
        <circle id="Ellipse_59" data-name="Ellipse 59" cx="2.851" cy="2.851" r="2.851" transform="translate(89.318 0.001)" fill="#dbd9db"/>
        <path id="Path_94" data-name="Path 94" d="M474,364.109a2.851,2.851,0,1,1,2.849,2.849A2.851,2.851,0,0,1,474,364.109Z" transform="translate(-429.341 -361.257)" fill="#dbd9db"/>
        <path id="Path_95" data-name="Path 95" d="M460.691,364.109a2.85,2.85,0,1,1,2.849,2.849A2.851,2.851,0,0,1,460.691,364.109Z" transform="translate(-460.691 -361.257)" fill="#dbd9db"/>
      </g>
      <g id="Group_46" data-name="Group 46">
        <path id="Path_96" data-name="Path 96" d="M513.927,352.213a2.851,2.851,0,1,1,2.852,2.852A2.851,2.851,0,0,1,513.927,352.213Z" transform="translate(-335.291 -349.364)" fill="#dbd9db"/>
        <path id="Path_97" data-name="Path 97" d="M500.618,352.213a2.85,2.85,0,1,1,2.852,2.852A2.851,2.851,0,0,1,500.618,352.213Z" transform="translate(-366.641 -349.364)" fill="#dbd9db"/>
        <path id="Path_98" data-name="Path 98" d="M487.309,352.213a2.851,2.851,0,1,1,2.852,2.852A2.849,2.849,0,0,1,487.309,352.213Z" transform="translate(-397.991 -349.364)" fill="#dbd9db"/>
        <path id="Path_99" data-name="Path 99" d="M474,352.213a2.851,2.851,0,1,1,2.849,2.852A2.848,2.848,0,0,1,474,352.213Z" transform="translate(-429.341 -349.364)" fill="#dbd9db"/>
        <path id="Path_100" data-name="Path 100" d="M460.691,352.213a2.85,2.85,0,1,1,2.849,2.852A2.848,2.848,0,0,1,460.691,352.213Z" transform="translate(-460.691 -349.364)" fill="#dbd9db"/>
      </g>
    </g>
  </g>
</svg>
